/* XPM */
static char *_4a11ae6050d4809edebfe4f2e4a0dc5FL38UZNp07STeWoP[] = {
/* columns rows colors chars-per-pixel */
"40 40 39 1 ",
"  c None",
". c gray60",
"X c #9A9A9A",
"o c gray62",
"O c #9F9F9F",
"+ c #A0A0A0",
"@ c #A5A5A5",
"# c gray65",
"$ c #A9A9A9",
"% c #AAAAAA",
"& c gray67",
"* c #ACACAC",
"= c gray68",
"- c #AEAEAE",
"; c #AFAFAF",
": c gray69",
"> c gray70",
", c #B6B6B6",
"< c #B7B7B7",
"1 c #B9B9B9",
"2 c gray73",
"3 c gray",
"4 c gray75",
"5 c #C0C0C0",
"6 c #C5C5C5",
"7 c gray80",
"8 c #CDCDCD",
"9 c #CECECE",
"0 c gray81",
"q c #D0D0D0",
"w c #D2D2D2",
"e c LightGray",
"r c gray83",
"t c #D5D5D5",
"y c #E6E6E6",
"u c #ECECEC",
"i c gray95",
"p c #F9F9F9",
"a c white",
/* pixels */
"                                        ",
"                                        ",
"                                        ",
"                                        ",
"                                        ",
"              +XXXXXXXXXX+              ",
"            +XX*7yuaauy7*XX+            ",
"           XX4iaaaaaaaaaai1XX           ",
"         OX#yaaaaaaaaaaaaaay#XO         ",
"        OX>paaaaaaaaaaaaaaaap*X         ",
"        X*aaaaaaaaaaaaaaaaaaaa*X        ",
"       X#paaaaaaaaaaaaaaaaaaaap#X       ",
"      OXyaaaaaaaaaaaaaaaaaaaaaayX+      ",
"      X4aaaaaaaaaaaaaaaaaaaaaaaa1X      ",
"     OXiaaaaaaaaaaaaaaaaaaaaaaaaiX+     ",
"     X*aaaaaaaaaaaaaaaaaaaaaaaaaa*X     ",
"    1X7aaaaaaaaaaaaaaaaaaaaaaaaaa7X     ",
"    >XyaaaaaaaaaaaaaaaaaaaaaaaaaayX>    ",
"    &XuaaaaaaaaaaaaaaaaaaaaaaaaaayX&    ",
"    XXaaaaaaaaaaaaaaaaaaaaaaaaaaaaXX    ",
"    XXaaaaaaaaaaaaaaaaaaaaaaaaaaaaXX    ",
"    &XuaaaaaaaaaaaaaaaaaaaaaaaaaayX&    ",
"    *XyaaaaaaaaaaaaaaaaaaaaaaaaaayO*    ",
"     Xwaaaaaaaaaaaaaaaaaaaaaaaaaa7X     ",
"     X*aaaaaaaaaaaaaaaaaaaaaaaaaa*X     ",
"     OXiaaaaaaaaaaaaaaaaaaaaaaaaiX+     ",
"      X4aaaaaaaaaaaaaaaaaaaaaaaa1X      ",
"      OXyaaaaaaaaaaaaaaaaaaaaaayXO      ",
"       X#paaaaaaaaaaaaaaaaaaaap#X4      ",
"       &X*aaaaaaaaaaaaaaaaaaaa*X&       ",
"        OX*paaaaaaaaaaaaaaaap*X#        ",
"         OX#yaaaaaaaaaaaaaay#X#7        ",
"         w&XX1iaaaaaaaaaai1XX&w         ",
"          t4OXX*7yuaauy7*XX+4t          ",
"            w1OXXXXXXXXXXO,w            ",
"              76,*&OX&*16w              ",
"                 w777ww                 ",
"                                        ",
"                                        ",
"                                        "
};
